<svg id="Layer_1" data-name="Layer 1" xmlns="http://www.w3.org/2000/svg" xmlns:xlink="http://www.w3.org/1999/xlink" viewBox="0 0 388 74.81"><defs><style>.cls-1{fill:none;}.cls-2{fill:#009444;}.cls-3,.cls-7{fill:#231f20;}.cls-4{clip-path:url(#clip-path);}.cls-5{fill:#fff;}.cls-6{fill:url(#linear-gradient);}.cls-7{stroke:#fff;stroke-miterlimit:10;stroke-width:1.63px;}</style><clipPath id="clip-path"><polygon class="cls-1" points="6.98 69.54 99.05 69.54 53.02 0 6.98 69.54"/></clipPath><linearGradient id="linear-gradient" x1="721.52" y1="-241.94" x2="793.02" y2="-241.94" gradientTransform="translate(-672.43 293.36)" gradientUnits="userSpaceOnUse"><stop offset="0.07" stop-color="#cda865"/><stop offset="0.26" stop-color="#f9ed8f"/><stop offset="0.34" stop-color="#fff"/><stop offset="0.5" stop-color="#f9ed8f"/><stop offset="0.85" stop-color="#cda865"/></linearGradient></defs><title>Artboard 1</title><path class="cls-2" d="M144,32a2.52,2.52,0,0,0-1.41,1,3.42,3.42,0,0,0-.39,1.65q0,1.12,0,2.24V44a10.63,10.63,0,0,1-1.68,1A30.81,30.81,0,0,1,133,47.52a22.87,22.87,0,0,1-4.67.49,26.55,26.55,0,0,1-8.27-1.19,16.46,16.46,0,0,1-6.15-3.5,15.3,15.3,0,0,1-3.84-5.64,19.87,19.87,0,0,1-1.34-7.47,18.58,18.58,0,0,1,.24-2.8,18.94,18.94,0,0,1,.85-3.33,18.58,18.58,0,0,1,1.7-3.55,17.21,17.21,0,0,1,2.75-3.4A17.55,17.55,0,0,1,120,13.45a21.94,21.94,0,0,1,8.27-1.39,23.29,23.29,0,0,1,5.15.51,26.25,26.25,0,0,1,3.77,1.12,15.76,15.76,0,0,1,2.36,1.12,4.87,4.87,0,0,0,.92.51q.1,0,.53-.58l1.07-1.41h.44v10.6h-.58a16.88,16.88,0,0,0-1.6-4.13,15.17,15.17,0,0,0-2.29-3.21,11.52,11.52,0,0,0-4-2.67,14,14,0,0,0-5.45-1,11.7,11.7,0,0,0-5.79,1.43,13.78,13.78,0,0,0-4.38,3.84,18.15,18.15,0,0,0-2.77,5.54,22.11,22.11,0,0,0-1,6.59,24.45,24.45,0,0,0,.92,6.93,15.91,15.91,0,0,0,2.67,5.37,12.18,12.18,0,0,0,4.28,3.48,13,13,0,0,0,5.79,1.24,11.67,11.67,0,0,0,4.35-.8,6.62,6.62,0,0,0,3.19-2.6,6,6,0,0,0,.58-2.24,27.62,27.62,0,0,0,.19-3.31,24.92,24.92,0,0,0-.17-3.06,3.86,3.86,0,0,0-1-2.24,5.78,5.78,0,0,0-3.94-1.51v-.49h14.25v.49A9.48,9.48,0,0,0,144,32Z"/><path class="cls-2" d="M179.25,47.76H149.49v-.49a9.87,9.87,0,0,0,2.26-.63,4.62,4.62,0,0,0,1.73-1.22,2.19,2.19,0,0,0,.39-.85q.15-.56.27-1.29a15,15,0,0,0,.17-1.53q0-.8,0-1.58t0-1.85q0-1.17,0-2.55t0-2.84V20.62q0-.88,0-1.8t-.1-1.75a9.12,9.12,0,0,0-.24-1.48,2.07,2.07,0,0,0-.46-.95,3.32,3.32,0,0,0-1.56-1,20.27,20.27,0,0,0-2.14-.41v-.49h26.84l3.31,8-.49.24q-3.94-4.91-7.39-6.61a11.8,11.8,0,0,0-3.06-.68,43.07,43.07,0,0,0-5.45-.29q-1,0-2.12.07a13.81,13.81,0,0,0-1.58.17q-.1.78-.17,3.21t-.07,5.64v3.11q0,1.27,0,2.07t0,1.24v.54h1q.73,0,1.68,0l1.9-.12a11,11,0,0,0,1.58-.22,8.45,8.45,0,0,0,2.43-.92,5.33,5.33,0,0,0,1.58-1.41,6.91,6.91,0,0,0,1-1.92,23.15,23.15,0,0,0,.66-2.46h.58V37.69h-.58a16.65,16.65,0,0,0-1.19-3.21A8.53,8.53,0,0,0,168.69,32a6.46,6.46,0,0,0-1.87-1.12,8.38,8.38,0,0,0-2.55-.54l-1.22-.07-1,0h-2.24a15.11,15.11,0,0,0-.1,2v5.84q0,.78,0,1.48t0,1.19q0,1.56.17,2.94a4.65,4.65,0,0,0,.56,2.07,3.06,3.06,0,0,0,2.09,1,20.7,20.7,0,0,0,3.6.29q.83,0,2.12,0a27,27,0,0,0,2.7-.24A10.63,10.63,0,0,0,173.9,46a10.07,10.07,0,0,0,2.53-1.58,16.05,16.05,0,0,0,2.36-2.5,33.42,33.42,0,0,0,2.36-3.57l.54.15Z"/><path class="cls-2" d="M220.32,14.16a4.32,4.32,0,0,0-1.68,2.09,8.19,8.19,0,0,0-.44,2.7q-.1,2-.19,4.21t-.17,4.94q-.07,2.84-.07,6.1V37.3q0,1.7,0,3.48t0,3.53v3.16a.43.43,0,0,1-.12.32.5.5,0,0,1-.37.12,1.34,1.34,0,0,1-.87-.49q-4.13-4.77-7.54-8.75l-6.49-7.61L196.37,24q-3-3.45-6.27-7.15V37.35q0,2.48.12,4.47a8,8,0,0,0,.61,3,3.51,3.51,0,0,0,1.68,1.68,10,10,0,0,0,3.14.8v.49h-12v-.49a9.51,9.51,0,0,0,2.33-.61,3.8,3.8,0,0,0,1.85-1.53,6.66,6.66,0,0,0,.88-3q.19-2,.29-4.77.1-2.09.15-4.94t0-6.1V20.38q0-1,0-2.38a5.65,5.65,0,0,0-.68-2.31,4.5,4.5,0,0,0-1.27-1.41,4.83,4.83,0,0,0-1.58-.73,13.19,13.19,0,0,0-1.63-.32v-.49h9.87l23.05,26.94V23.15q0-1.94,0-3.72a8.81,8.81,0,0,0-.44-2.8,4.46,4.46,0,0,0-1.73-2.21,8.55,8.55,0,0,0-3.57-1.19v-.49h12.06v.49A7.35,7.35,0,0,0,220.32,14.16Z"/><path class="cls-2" d="M253.41,47.76q-.44-.44-.63-.66l-.44-.51a9.74,9.74,0,0,1-.61-.85c-.24-.37-.62-.93-1.14-1.68q-.93-1.36-1.63-2.46t-1.44-2.16q-.73-1.07-1.58-2.16t-2-2.46a20.13,20.13,0,0,0-2.12-2.09,5.24,5.24,0,0,0-2.41-1.22,7.47,7.47,0,0,0-1.41-.19q-.44,0-1.12,0v5.5q0,2.33,0,3.94t.1,2.67a3.54,3.54,0,0,0,.54,1.85,4.28,4.28,0,0,0,1.51,1.29,6.83,6.83,0,0,0,3.11.75v.49H226.61v-.49a13.63,13.63,0,0,0,2.34-.58,3.8,3.8,0,0,0,1.75-1.17,2.19,2.19,0,0,0,.39-.88,9.2,9.2,0,0,0,.22-1.31q.07-.73.12-1.56c0-.55,0-1.09,0-1.6s0-1.07,0-1.85,0-1.63,0-2.55,0-1.87,0-2.84V20.62q0-.88,0-1.77c0-.6,0-1.17-.1-1.7a9.15,9.15,0,0,0-.24-1.46,2.07,2.07,0,0,0-.46-.95,3.66,3.66,0,0,0-1.63-1,16.46,16.46,0,0,0-2.21-.46v-.49h2l3.74,0,4.18,0h3.4q3.26,0,5.79.19a11.57,11.57,0,0,1,4.62,1.31,9.37,9.37,0,0,1,3.45,3,8.39,8.39,0,0,1,1.31,4.84,7.69,7.69,0,0,1-.66,3.23A8.59,8.59,0,0,1,253,27.85a10.68,10.68,0,0,1-2.55,1.87A19.85,19.85,0,0,1,247.38,31v.15a6.24,6.24,0,0,1,1.6,1.26,17.67,17.67,0,0,1,1.51,1.85q1.27,1.85,2.75,4t2.65,3.79a14.88,14.88,0,0,0,3.5,3.7,9.38,9.38,0,0,0,4,1.51v.49Zm-4.81-30.3a8.39,8.39,0,0,0-3.55-3,10.61,10.61,0,0,0-2.46-.78,14.59,14.59,0,0,0-2.7-.24c-.68,0-1.23,0-1.65,0l-1,.1c0,.19-.07.36-.1.51a4,4,0,0,0-.07.56q0,.34,0,.95c0,.41,0,1-.07,1.73q0,1.7-.07,3.84t0,4.13v5.35q2,0,3.72-.17a15.19,15.19,0,0,0,3.33-.71,8.93,8.93,0,0,0,2.67-1.31,7.66,7.66,0,0,0,1.82-1.87,7.78,7.78,0,0,0,1-2.26,9.35,9.35,0,0,0,.34-2.53A7.85,7.85,0,0,0,248.6,17.46Z"/><path class="cls-2" d="M293.43,47.76H263.67v-.49a9.86,9.86,0,0,0,2.26-.63,4.62,4.62,0,0,0,1.73-1.22,2.2,2.2,0,0,0,.39-.85q.15-.56.27-1.29a15,15,0,0,0,.17-1.53c0-.54,0-1.06,0-1.58s0-1.07,0-1.85,0-1.63,0-2.55,0-1.87,0-2.84V20.62q0-.88,0-1.8t-.1-1.75a9.18,9.18,0,0,0-.24-1.48,2.08,2.08,0,0,0-.46-.95,3.32,3.32,0,0,0-1.56-1,20.29,20.29,0,0,0-2.14-.41v-.49H291l3.31,8-.49.24q-3.94-4.91-7.39-6.61a11.8,11.8,0,0,0-3.06-.68,43.05,43.05,0,0,0-5.45-.29q-1,0-2.12.07a13.83,13.83,0,0,0-1.58.17q-.1.78-.17,3.21t-.07,5.64v3.11q0,1.27,0,2.07t0,1.24v.54h1q.73,0,1.68,0l1.9-.12a11,11,0,0,0,1.58-.22,8.46,8.46,0,0,0,2.43-.92,5.33,5.33,0,0,0,1.58-1.41,6.89,6.89,0,0,0,1-1.92,23.06,23.06,0,0,0,.66-2.46h.58V37.69h-.58a16.62,16.62,0,0,0-1.19-3.21A8.54,8.54,0,0,0,282.88,32,6.45,6.45,0,0,0,281,30.89a8.38,8.38,0,0,0-2.55-.54l-1.21-.07-1,0H274a15.09,15.09,0,0,0-.1,2v5.84q0,.78,0,1.48t0,1.19q0,1.56.17,2.94a4.66,4.66,0,0,0,.56,2.07,3.06,3.06,0,0,0,2.09,1,20.72,20.72,0,0,0,3.6.29q.83,0,2.12,0a26.93,26.93,0,0,0,2.7-.24,10.63,10.63,0,0,0,2.87-.75,10.08,10.08,0,0,0,2.53-1.58A16,16,0,0,0,293,41.9a33.51,33.51,0,0,0,2.36-3.57l.53.15Z"/><path class="cls-2" d="M328.18,14a5.49,5.49,0,0,0-1.09.78c-.1.1-.24.25-.41.46a6,6,0,0,0-.61.92q-.34.61-.8,1.53t-1,2.33q-1,2.33-2.14,5.23t-2.38,6q-1.22,3.06-2.41,6.15L315,43.24l-2.38,4.86h-.58q-1.61-3.94-3-7.51t-2.7-6.88q-1.31-3.31-2.53-6.4t-2.43-6.2q-.34-.92-.63-1.6t-.56-1.26q-.27-.58-.54-1.12L299.12,16a7.1,7.1,0,0,0-.44-.73,4.37,4.37,0,0,0-.8-.88,4.86,4.86,0,0,0-1.24-.75,5.27,5.27,0,0,0-1.85-.36v-.54h14.54v.49l-.88.15a5.79,5.79,0,0,0-1.29.36,3.71,3.71,0,0,0-1.17.75,1.61,1.61,0,0,0-.51,1.22,9.47,9.47,0,0,0,.53,2.07q.53,1.63,1.39,3.94t1.92,5.06q1.07,2.75,2.12,5.4t2,4.94q.92,2.29,1.46,3.74.24-.53.9-2.24t1.65-4.23q1-2.53,2.21-5.74t2.53-6.71a33.07,33.07,0,0,0,1.26-4.06,11.09,11.09,0,0,0,.29-1.92,1.65,1.65,0,0,0-.49-1.22,3.89,3.89,0,0,0-1.22-.8,8.12,8.12,0,0,0-1.53-.49,11.19,11.19,0,0,0-1.44-.22v-.49h11.33v.54A5.32,5.32,0,0,0,328.18,14Z"/><path class="cls-2" d="M338.93,21.5a20.59,20.59,0,0,0-.8,3q-.44,2.07-.85,5.47t-.61,8.51h-.58q-.19-5.06-.63-8.46t-.92-5.47a25.49,25.49,0,0,0-.85-3,9.56,9.56,0,0,0-.46-1.09,10.63,10.63,0,0,1,.29-2.38,16,16,0,0,1,.73-2.36,7.67,7.67,0,0,1,1-1.82,1.5,1.5,0,0,1,1.09-.73q.49,0,1,.73a8.31,8.31,0,0,1,1,1.82A16,16,0,0,1,339,18a10.64,10.64,0,0,1,.29,2.38C339.31,20.53,339.17,20.88,338.93,21.5Zm-.54,25.56a3,3,0,0,1-2.07.7,3,3,0,0,1-2.09-.75,2.59,2.59,0,0,1-.83-2,2.91,2.91,0,0,1,.83-2.12,2.79,2.79,0,0,1,2.09-.85,2.65,2.65,0,0,1,2.07.9,3.14,3.14,0,0,1,.8,2.16A2.48,2.48,0,0,1,338.39,47.06Z"/><path class="cls-3" d="M350.3,12.87V14H348v5.91h-1.41V14h-2.24V12.87ZM358,19.95l-.26-4.16c0-.55,0-1.22-.05-2h-.08c-.18.62-.42,1.46-.6,2.11l-1.28,3.93h-1.46l-1.28-4-.49-2h-.08c0,.65,0,1.33-.05,2l-.26,4.16h-1.35l.52-7.08h2.11l1.22,3.46c.18.55.29,1.07.47,1.8h0c.18-.62.34-1.25.5-1.74l1.22-3.51h2l.55,7.08Z"/><path class="cls-3" d="M117.8,62.11H125a6.08,6.08,0,0,1-1.83,4.18,5.73,5.73,0,0,1-4.14,1.64,5.63,5.63,0,0,1-4.22-1.76,6,6,0,0,1-1.7-4.37,5.88,5.88,0,0,1,.46-2.32,6.07,6.07,0,0,1,1.36-2,5.69,5.69,0,0,1,1.91-1.27,6.26,6.26,0,0,1,2.33-.42,5.74,5.74,0,0,1,3,.82A6,6,0,0,1,124.42,59H123a5.69,5.69,0,0,0-1.76-1.55,4.41,4.41,0,0,0-2.1-.5,4.54,4.54,0,0,0-3.4,1.44,4.79,4.79,0,0,0-1.39,3.45,4.94,4.94,0,0,0,1.38,3.58,4.56,4.56,0,0,0,3.42,1.43,4.45,4.45,0,0,0,2.87-1,4.7,4.7,0,0,0,1.65-2.66H117.8Z"/><path class="cls-3" d="M135.09,63.66h-7.94a3.41,3.41,0,0,0,1,2.32,3.27,3.27,0,0,0,2.34.89,3.21,3.21,0,0,0,1.78-.51,3.38,3.38,0,0,0,1.22-1.43h1.28a5,5,0,0,1-1.71,2.24,4.29,4.29,0,0,1-2.55.78,4.35,4.35,0,0,1-3.25-1.37,4.81,4.81,0,0,1,0-6.61,4.48,4.48,0,0,1,3.32-1.31A4.19,4.19,0,0,1,133.84,60a5,5,0,0,1,1.25,3.55Zm-1.25-1a3.93,3.93,0,0,0-1.18-2.21,3.29,3.29,0,0,0-2.23-.74,3.13,3.13,0,0,0-2.17.8,3.47,3.47,0,0,0-1.09,2.15Z"/><path class="cls-3" d="M136.39,58.9h1.1v1a3.26,3.26,0,0,1,1.2-.89,4,4,0,0,1,1.56-.29,4,4,0,0,1,1.72.36,2.87,2.87,0,0,1,1.2,1,3.25,3.25,0,0,1,.44,1.11,10,10,0,0,1,.13,1.88v4.6h-1.11V62.77a3.48,3.48,0,0,0-.6-2.26,2.37,2.37,0,0,0-1.91-.7,2.84,2.84,0,0,0-1.35.31,2.28,2.28,0,0,0-.92.88,2.54,2.54,0,0,0-.29.82,10.35,10.35,0,0,0-.08,1.6V67.7h-1.1Z"/><path class="cls-3" d="M154.16,63.66h-7.94a3.41,3.41,0,0,0,1,2.32,3.27,3.27,0,0,0,2.34.89,3.21,3.21,0,0,0,1.78-.51,3.38,3.38,0,0,0,1.22-1.43h1.28a5,5,0,0,1-1.71,2.24,4.29,4.29,0,0,1-2.55.78,4.35,4.35,0,0,1-3.25-1.37,4.81,4.81,0,0,1,0-6.61,4.48,4.48,0,0,1,3.32-1.31A4.19,4.19,0,0,1,152.91,60a5,5,0,0,1,1.25,3.55Zm-1.25-1a3.93,3.93,0,0,0-1.18-2.21,3.29,3.29,0,0,0-2.23-.74,3.13,3.13,0,0,0-2.17.8,3.47,3.47,0,0,0-1.09,2.15Z"/><path class="cls-3" d="M156.59,67.7h-1.14V58.9h1.06v1a2.82,2.82,0,0,1,.91-.86,2.47,2.47,0,0,1,1.15-.29V60a2.18,2.18,0,0,0-1.52.64,2.69,2.69,0,0,0-.46,1.76Z"/><path class="cls-3" d="M167,66.3a3.59,3.59,0,0,1-1.43,1.19,4.42,4.42,0,0,1-1.94.43,4.31,4.31,0,0,1-3.22-1.32,4.8,4.8,0,0,1,0-6.57,4.45,4.45,0,0,1,3.29-1.33,4.21,4.21,0,0,1,1.86.41A3.72,3.72,0,0,1,167,60.3V58.9h1.1v8.8H167Zm0-3.06a3.42,3.42,0,0,0-1-2.44,3.11,3.11,0,0,0-2.3-1,3.21,3.21,0,0,0-2.41,1,3.61,3.61,0,0,0-1,2.59,3.41,3.41,0,0,0,1,2.48,3.22,3.22,0,0,0,2.38,1A3.1,3.1,0,0,0,166,65.81,3.64,3.64,0,0,0,167,63.24Z"/><path class="cls-3" d="M170.64,67.7V60H169V58.9h1.67V56h1.13V58.9h1.67V60h-1.67V67.7Z"/><path class="cls-3" d="M175.49,57.86h-1.13V56h1.13Zm-1.13,9.83V58.9h1.13v8.8Z"/><path class="cls-3" d="M177.32,58.9h1.1v1a3.26,3.26,0,0,1,1.2-.89,4,4,0,0,1,1.56-.29,4,4,0,0,1,1.72.36,2.87,2.87,0,0,1,1.2,1,3.25,3.25,0,0,1,.44,1.11,10,10,0,0,1,.13,1.88v4.6h-1.11V62.77a3.48,3.48,0,0,0-.6-2.26,2.37,2.37,0,0,0-1.91-.7,2.84,2.84,0,0,0-1.35.31,2.28,2.28,0,0,0-.92.88,2.53,2.53,0,0,0-.29.82,10.35,10.35,0,0,0-.08,1.6V67.7h-1.1Z"/><path class="cls-3" d="M188,68.42a2.2,2.2,0,0,0,.93,1.2,3,3,0,0,0,1.63.43,3.1,3.1,0,0,0,2.41-1,3.82,3.82,0,0,0,.91-2.67v-.23a4.46,4.46,0,0,1-1.46,1.32,3.7,3.7,0,0,1-1.8.44,4.45,4.45,0,0,1-3.3-1.32,4.78,4.78,0,0,1,0-6.56,4.65,4.65,0,0,1,5.13-.92,4,4,0,0,1,1.44,1.25V58.9h1.1v7.34a5.22,5.22,0,0,1-1.16,3.6,4.05,4.05,0,0,1-3.19,1.3A4.41,4.41,0,0,1,188,70.4a3.32,3.32,0,0,1-1.38-2Zm-.78-5.19a3.62,3.62,0,0,0,1,2.58,3.13,3.13,0,0,0,4.67,0,3.43,3.43,0,0,0,1-2.45,3.65,3.65,0,0,0-1-2.57,3.06,3.06,0,0,0-2.32-1.06,3.17,3.17,0,0,0-2.36,1A3.44,3.44,0,0,0,187.18,63.22Z"/><path class="cls-3" d="M201.56,67.7V56h1.69l4,10.13,4-10.13H213V67.7h-1.1V57.41L207.8,67.7h-1l-4.1-10.29V67.7Z"/><path class="cls-3" d="M214.38,63.3A4.6,4.6,0,0,1,215.71,60a4.23,4.23,0,0,1,3.14-1.38,4.61,4.61,0,0,1,4.61,4.58,4.71,4.71,0,0,1-1.32,3.36,4.25,4.25,0,0,1-3.2,1.39,4.34,4.34,0,0,1-3.24-1.36A4.53,4.53,0,0,1,214.38,63.3Zm1.18,0a3.58,3.58,0,0,0,1,2.55,3.17,3.17,0,0,0,2.41,1,3.12,3.12,0,0,0,2.38-1,3.61,3.61,0,0,0,1-2.56,3.53,3.53,0,0,0-1-2.56,3.29,3.29,0,0,0-2.47-1,3,3,0,0,0-2.31,1A3.6,3.6,0,0,0,215.56,63.29Z"/><path class="cls-3" d="M225.92,67.7h-1.14V58.9h1.06v1a2.81,2.81,0,0,1,.91-.86,2.47,2.47,0,0,1,1.15-.29V60a2.18,2.18,0,0,0-1.52.64,2.7,2.7,0,0,0-.46,1.76Z"/><path class="cls-3" d="M237.52,63.66h-7.94a3.41,3.41,0,0,0,1,2.32,3.27,3.27,0,0,0,2.34.89,3.21,3.21,0,0,0,1.78-.51A3.39,3.39,0,0,0,236,64.92h1.28a5,5,0,0,1-1.71,2.24,4.29,4.29,0,0,1-2.55.78,4.35,4.35,0,0,1-3.25-1.37,4.81,4.81,0,0,1,0-6.61A4.48,4.48,0,0,1,233,58.66,4.19,4.19,0,0,1,236.27,60a5,5,0,0,1,1.25,3.55Zm-1.25-1a3.93,3.93,0,0,0-1.18-2.21,3.28,3.28,0,0,0-2.23-.74,3.13,3.13,0,0,0-2.17.8,3.47,3.47,0,0,0-1.09,2.15Z"/><path class="cls-3" d="M244.58,57.19V67.7h-1.13V56h3.13a7.13,7.13,0,0,1,1.66.16A3.35,3.35,0,0,1,250.48,58a3.84,3.84,0,0,1,.4,1.73,3.55,3.55,0,0,1-.8,2.33,2.78,2.78,0,0,1-2,1.06l2.82,4.55h-1.36l-3.46-5.62h1.1a2.52,2.52,0,0,0,1.8-.65,2.18,2.18,0,0,0,.69-1.66,2.87,2.87,0,0,0-.21-1.12,2.47,2.47,0,0,0-.63-.88,2,2,0,0,0-.83-.44,7.57,7.57,0,0,0-1.72-.13Z"/><path class="cls-3" d="M260.9,63.66H253A3.41,3.41,0,0,0,254,66a3.27,3.27,0,0,0,2.34.89,3.21,3.21,0,0,0,1.78-.51,3.39,3.39,0,0,0,1.22-1.43h1.28a5,5,0,0,1-1.71,2.24,4.29,4.29,0,0,1-2.55.78,4.35,4.35,0,0,1-3.25-1.37,4.81,4.81,0,0,1,0-6.61,4.48,4.48,0,0,1,3.32-1.31A4.19,4.19,0,0,1,259.64,60a5,5,0,0,1,1.25,3.55Zm-1.25-1a3.93,3.93,0,0,0-1.18-2.21,3.28,3.28,0,0,0-2.23-.74,3.13,3.13,0,0,0-2.17.8A3.47,3.47,0,0,0,253,62.67Z"/><path class="cls-3" d="M265.63,67.7h-1l-3.44-8.8h1.19l2.82,7.1L268,58.9h1.22Z"/><path class="cls-3" d="M278.64,63.66H270.7a3.41,3.41,0,0,0,1,2.32,3.27,3.27,0,0,0,2.34.89,3.2,3.2,0,0,0,1.78-.51,3.36,3.36,0,0,0,1.22-1.43h1.28a5.06,5.06,0,0,1-1.71,2.24,4.28,4.28,0,0,1-2.55.78,4.35,4.35,0,0,1-3.25-1.37,4.81,4.81,0,0,1,0-6.61,4.48,4.48,0,0,1,3.32-1.31A4.19,4.19,0,0,1,277.39,60a5.05,5.05,0,0,1,1.25,3.55Zm-1.25-1a3.93,3.93,0,0,0-1.18-2.21,3.29,3.29,0,0,0-2.23-.74,3.13,3.13,0,0,0-2.17.8,3.46,3.46,0,0,0-1.09,2.15Z"/><path class="cls-3" d="M279.94,58.9H281v1a3.26,3.26,0,0,1,1.2-.89,4,4,0,0,1,1.56-.29,4,4,0,0,1,1.72.36,2.88,2.88,0,0,1,1.2,1,3.26,3.26,0,0,1,.44,1.11,9.85,9.85,0,0,1,.13,1.88v4.6h-1.11V62.77a3.48,3.48,0,0,0-.6-2.26,2.37,2.37,0,0,0-1.91-.7,2.84,2.84,0,0,0-1.35.31,2.29,2.29,0,0,0-.92.88,2.53,2.53,0,0,0-.29.82,10.35,10.35,0,0,0-.08,1.6V67.7h-1.1Z"/><path class="cls-3" d="M289,58.9h1.11v4.67a4.23,4.23,0,0,0,.58,2.55,2.29,2.29,0,0,0,1.92.75,2.79,2.79,0,0,0,1.34-.31,2.38,2.38,0,0,0,.93-.89,2.52,2.52,0,0,0,.29-.81,10.17,10.17,0,0,0,.09-1.63V58.9h1.13v8.8h-1.13v-1a3.13,3.13,0,0,1-1.14.9,3.76,3.76,0,0,1-1.53.28,3.35,3.35,0,0,1-2.74-1,5.43,5.43,0,0,1-.84-3.41Z"/><path class="cls-3" d="M306.86,63.66h-7.94A3.41,3.41,0,0,0,300,66a3.27,3.27,0,0,0,2.34.89,3.21,3.21,0,0,0,1.78-.51,3.38,3.38,0,0,0,1.22-1.43h1.28a5.06,5.06,0,0,1-1.71,2.24,4.29,4.29,0,0,1-2.55.78,4.35,4.35,0,0,1-3.25-1.37A4.81,4.81,0,0,1,299,60a4.48,4.48,0,0,1,3.32-1.31A4.19,4.19,0,0,1,305.61,60a5,5,0,0,1,1.25,3.55Zm-1.25-1a3.93,3.93,0,0,0-1.18-2.21,3.29,3.29,0,0,0-2.23-.74,3.13,3.13,0,0,0-2.17.8,3.47,3.47,0,0,0-1.09,2.15Z"/><path class="cls-3" d="M312.83,56h2.47a10.29,10.29,0,0,1,1.7.11,3,3,0,0,1,2.24,1.56,3.37,3.37,0,0,1,.41,1.67,3.6,3.6,0,0,1-.37,1.63,3,3,0,0,1-1,1.19,3.17,3.17,0,0,1-1.11.45,8,8,0,0,1-1.64.14H314v4.9h-1.14ZM314,57.19v4.44h1.69a3.32,3.32,0,0,0,2.08-.54,2,2,0,0,0,.67-1.66,2.06,2.06,0,0,0-.68-1.71,3.49,3.49,0,0,0-2.17-.54Z"/><path class="cls-3" d="M321.89,67.7h-1.14V58.9h1.06v1a2.82,2.82,0,0,1,.91-.86,2.47,2.47,0,0,1,1.15-.29V60a2.18,2.18,0,0,0-1.52.64,2.69,2.69,0,0,0-.46,1.76Z"/><path class="cls-3" d="M324.38,63.3A4.6,4.6,0,0,1,325.71,60a4.23,4.23,0,0,1,3.14-1.38,4.61,4.61,0,0,1,4.61,4.58,4.71,4.71,0,0,1-1.32,3.36,4.25,4.25,0,0,1-3.2,1.39,4.34,4.34,0,0,1-3.24-1.36A4.53,4.53,0,0,1,324.38,63.3Zm1.18,0a3.57,3.57,0,0,0,1,2.55,3.17,3.17,0,0,0,2.41,1,3.12,3.12,0,0,0,2.38-1,3.61,3.61,0,0,0,1-2.56,3.54,3.54,0,0,0-1-2.56,3.29,3.29,0,0,0-2.47-1,3,3,0,0,0-2.31,1A3.6,3.6,0,0,0,325.56,63.29Z"/><path class="cls-3" d="M336.35,67.7h-1.1V59.88h-1.18v-1h1.13v-.24a2.73,2.73,0,0,1,.71-2.07,3.06,3.06,0,0,1,2.17-.67h.1v1a2.16,2.16,0,0,0-1.44.4,1.74,1.74,0,0,0-.42,1.32v.24h1.86v1h-1.84Z"/><path class="cls-3" d="M340.43,57.86h-1.13V56h1.13Zm-1.13,9.83V58.9h1.13v8.8Z"/><path class="cls-3" d="M343,67.7V60h-1.67V58.9H343V56h1.13V58.9h1.67V60h-1.67V67.7Z"/><path class="cls-3" d="M354.16,66.3a3.58,3.58,0,0,1-1.43,1.19,4.42,4.42,0,0,1-1.94.43,4.31,4.31,0,0,1-3.22-1.32,4.8,4.8,0,0,1,0-6.57,4.45,4.45,0,0,1,3.29-1.33,4.21,4.21,0,0,1,1.86.41,3.72,3.72,0,0,1,1.41,1.19V58.9h1.1v8.8h-1.1Zm0-3.06a3.42,3.42,0,0,0-1-2.44,3.1,3.1,0,0,0-2.3-1,3.21,3.21,0,0,0-2.41,1,3.61,3.61,0,0,0-1,2.59,3.41,3.41,0,0,0,1,2.48,3.22,3.22,0,0,0,2.38,1,3.1,3.1,0,0,0,2.34-1.07A3.64,3.64,0,0,0,354.16,63.24Z"/><path class="cls-3" d="M358.13,56v4.33a4.69,4.69,0,0,1,1.56-1.26,4.32,4.32,0,0,1,1.9-.41A4.19,4.19,0,0,1,364.73,60a4.79,4.79,0,0,1,0,6.56,4.44,4.44,0,0,1-3.3,1.33,4.09,4.09,0,0,1-1.79-.39,4.53,4.53,0,0,1-1.48-1.17V67.7H357V56Zm0,7.34a3.44,3.44,0,0,0,1,2.45,3.08,3.08,0,0,0,2.29,1,3.21,3.21,0,0,0,2.41-1,3.62,3.62,0,0,0,1-2.59,3.4,3.4,0,0,0-1-2.48,3.21,3.21,0,0,0-2.38-1,3.09,3.09,0,0,0-2.36,1.06A3.67,3.67,0,0,0,358.13,63.38Z"/><path class="cls-3" d="M367.39,67.7V56h1.13V67.7Z"/><path class="cls-3" d="M369.17,58.9h1.3L373.19,66,376,58.9h1.31L372.6,70.54h-1.21l1.18-2.86Z"/><path class="cls-3" d="M382.54,56.06v.46h-1.38V60.3h-.66V56.52H379.1v-.46Zm2,0,1.33,3.38,1.25-3.38H388V60.3h-.57V56.57L386,60.3h-.39l-1.49-3.74V60.3h-.58V56.06Z"/><path class="cls-3" d="M9.93,67s5.33,1,9.7-.3.49-.47.49-.47-15.94-2.66-1.69-28c0,0,6-11.73,10.37-15.53C28.81,22.73-4.84,51,9.93,67Z"/><g class="cls-4"><polygon class="cls-2" points="6.98 70.52 99.05 70.52 53.02 0.98 6.98 70.52"/><circle class="cls-5" cx="84.85" cy="52.4" r="39.67"/><circle class="cls-6" cx="84.85" cy="51.42" r="35.75" transform="translate(-1.2 100.8) rotate(-61.07)"/></g><path class="cls-7" d="M4.8,69.72S41.8,75,76.87,28.26L61.28,28l32.55-16.7-.27,41.18L89.11,35.22S48.36,91.75,4.8,69.72Z"/></svg>